<?xml version="1.0" encoding="UTF-8"?>
<svg xmlns="http://www.w3.org/2000/svg" xmlns:xlink="http://www.w3.org/1999/xlink" width="19px" height="16px" viewBox="0 0 19 16" version="1.1">
<g id="surface1">
<path style=" stroke:none;fill-rule:nonzero;fill:rgb(0%,0%,0%);fill-opacity:1;" d="M 11.457031 7.140625 C 11.515625 7.441406 11.558594 7.746094 11.558594 8.136719 C 11.558594 11.566406 9.367188 14 6.082031 14 C 2.925781 14 0.378906 11.316406 0.378906 8 C 0.378906 4.683594 2.925781 2 6.082031 2 C 7.621094 2 8.902344 2.585938 9.894531 3.570312 L 8.355469 5.132812 C 7.929688 4.707031 7.191406 4.207031 6.082031 4.207031 C 4.136719 4.207031 2.546875 5.910156 2.546875 8 C 2.546875 10.101562 4.136719 11.792969 6.082031 11.792969 C 8.332031 11.792969 9.183594 10.078125 9.289062 9.203125 L 6.082031 9.203125 L 6.082031 7.140625 Z M 16.96875 7.339844 L 16.96875 5.601562 L 15.300781 5.601562 L 15.300781 7.339844 L 13.648438 7.339844 L 13.648438 9.089844 L 15.300781 9.089844 L 15.300781 10.832031 L 16.96875 10.832031 L 16.96875 9.089844 L 18.621094 9.089844 L 18.621094 7.339844 Z M 16.96875 7.339844 "/>
</g>
</svg>
