<?xml version="1.0" encoding="UTF-8"?>
<svg xmlns="http://www.w3.org/2000/svg" xmlns:xlink="http://www.w3.org/1999/xlink" width="15px" height="20px" viewBox="0 0 15 20" version="1.1">
<g id="surface1">
<path style=" stroke:none;fill-rule:nonzero;fill:rgb(0%,0%,0%);fill-opacity:1;" d="M 7.96875 0.253906 C 3.960938 0.253906 0 2.925781 0 7.25 C 0 10 1.546875 11.5625 2.484375 11.5625 C 2.871094 11.5625 3.09375 10.484375 3.09375 10.179688 C 3.09375 9.8125 2.167969 9.042969 2.167969 7.53125 C 2.167969 4.390625 4.5625 2.164062 7.652344 2.164062 C 10.3125 2.164062 12.28125 3.675781 12.28125 6.453125 C 12.28125 8.523438 11.449219 12.417969 8.753906 12.417969 C 7.78125 12.417969 6.949219 11.714844 6.949219 10.707031 C 6.949219 9.226562 7.976562 7.804688 7.976562 6.28125 C 7.976562 3.691406 4.3125 4.160156 4.3125 7.285156 C 4.3125 7.9375 4.394531 8.667969 4.6875 9.265625 C 4.148438 11.585938 3.046875 15.042969 3.046875 17.429688 C 3.046875 18.171875 3.15625 18.898438 3.222656 19.640625 C 3.355469 19.785156 3.289062 19.769531 3.492188 19.695312 C 5.460938 17 5.390625 16.476562 6.28125 12.945312 C 6.761719 13.859375 8.003906 14.351562 8.988281 14.351562 C 13.132812 14.351562 15 10.308594 15 6.664062 C 15 2.78125 11.648438 0.253906 7.96875 0.253906 Z M 7.96875 0.253906 "/>
</g>
</svg>
