<?xml version="1.0" encoding="UTF-8"?>
<svg xmlns="http://www.w3.org/2000/svg" xmlns:xlink="http://www.w3.org/1999/xlink" width="15px" height="15px" viewBox="0 0 15 15" version="1.1">
<g id="surface1">
<path style=" stroke:none;fill-rule:nonzero;fill:rgb(0%,0%,0%);fill-opacity:1;" d="M 13.460938 4.445312 C 13.46875 4.578125 13.46875 4.710938 13.46875 4.84375 C 13.46875 8.90625 10.375 13.59375 4.71875 13.59375 C 2.980469 13.59375 1.359375 13.085938 0 12.210938 C 0.25 12.242188 0.484375 12.25 0.742188 12.25 C 2.179688 12.25 3.503906 11.765625 4.558594 10.9375 C 3.210938 10.910156 2.078125 10.023438 1.6875 8.804688 C 1.875 8.832031 2.066406 8.851562 2.265625 8.851562 C 2.542969 8.851562 2.820312 8.8125 3.074219 8.746094 C 1.667969 8.460938 0.609375 7.226562 0.609375 5.757812 L 0.609375 5.71875 C 1.019531 5.945312 1.496094 6.089844 2 6.109375 C 1.171875 5.558594 0.628906 4.613281 0.628906 3.546875 C 0.628906 2.976562 0.78125 2.453125 1.046875 1.996094 C 2.5625 3.863281 4.835938 5.082031 7.386719 5.214844 C 7.339844 4.984375 7.3125 4.746094 7.3125 4.507812 C 7.3125 2.816406 8.683594 1.4375 10.386719 1.4375 C 11.269531 1.4375 12.070312 1.808594 12.632812 2.40625 C 13.328125 2.273438 13.992188 2.015625 14.582031 1.664062 C 14.355469 2.378906 13.867188 2.976562 13.230469 3.359375 C 13.851562 3.292969 14.449219 3.121094 15 2.882812 C 14.582031 3.492188 14.058594 4.035156 13.460938 4.472656 Z M 13.460938 4.445312 "/>
</g>
</svg>
